<!DOCTYPE svg PUBLIC "-//W3C//DTD SVG 20010904//EN" "http://www.w3.org/TR/2001/REC-SVG-20010904/DTD/svg10.dtd">
<svg version="1.0" xmlns="http://www.w3.org/2000/svg" width="118px" height="131px" viewBox="0 0 1180 1310" preserveAspectRatio="xMidYMid meet">
<g id="layer101" fill="#3b8070" stroke="none">
 <path d="M90 650 l0 -490 194 0 c177 0 195 2 200 18 3 9 24 113 47 230 23 116 45 212 49 212 4 0 26 -96 49 -212 23 -117 44 -221 47 -230 5 -16 23 -18 200 -18 l194 0 0 490 0 490 -84 0 -84 0 -10 -47 c-6 -27 -27 -132 -48 -235 -20 -104 -40 -188 -44 -188 -4 0 -24 84 -44 188 -21 103 -42 208 -48 235 l-10 47 -118 0 -118 0 -10 -47 c-6 -27 -27 -132 -48 -235 -20 -104 -40 -188 -44 -188 -4 0 -24 84 -44 188 -21 103 -42 208 -48 235 l-10 47 -84 0 -84 0 0 -490z"/>
 </g>
</svg>
